<svg width="150" height="100" viewBox="0 0 150 100" xmlns="http://www.w3.org/2000/svg">
    <defs>
        <linearGradient id="logoGradient" x1="0%" y1="0%" x2="100%" y2="100%">
            <stop offset="0%" style="stop-color:#0056b3;" />
            <stop offset="100%" style="stop-color:#ff6600;" />
        </linearGradient>
        <!-- Mask to cut out the Africa shape from the A's crossbar -->
        <mask id="africaMask">
            <rect width="100%" height="100%" fill="white" />
            <!-- This is a simplified path for the African continent -->
            <path d="M55.3,48.7c-1.2-0.6-2.3-1.4-3.2-2.5c-1.3-1.6-1.9-3.6-1.7-5.6c0.2-2.5,1.5-4.8,3.5-6.3c2.4-1.8,5.5-2.3,8.2-1.4c2.2,0.7,4.1,2.3,5.3,4.3c1.4,2.3,1.8,5,1,7.5c-0.6,1.9-1.8,3.6-3.4,4.8c-1.8,1.3-4,2-6.2,1.9C57.5,51.3,56.3,50.3,55.3,48.7z" fill="black" transform="scale(1.8) translate(-20, -15)"/>
        </mask>
    </defs>
    
    <g fill="url(#logoGradient)">
        <!-- Stylized 'N' -->
        <path d="M10 90 L10 10 L35 10 L60 80 L60 10 L85 10 L85 90 L60 90 L35 20 L35 90 Z" />
        
        <!-- Stylized 'A' with Africa map as crossbar -->
        <path d="M95 90 L115 10 L140 10 L120 90 Z" />
        <path d="M100 60 L135 60" stroke="url(#logoGradient)" stroke-width="8" mask="url(#africaMask)" />
    </g>
</svg>
